<mxfile host="app.diagrams.net" agent="Mozilla/5.0 (Macintosh; Intel Mac OS X 10_15_7) AppleWebKit/537.36 (KHTML, like Gecko) Chrome/139.0.0.0 Safari/537.36" version="28.2.0">
  <diagram name="Page-1" id="N2ReQ0XDYiBZ0Be5Qukj">
    <mxGraphModel dx="1183" dy="656" grid="1" gridSize="10" guides="1" tooltips="1" connect="1" arrows="1" fold="1" page="1" pageScale="1" pageWidth="850" pageHeight="1100" math="0" shadow="0">
      <root>
        <mxCell id="0" />
        <mxCell id="1" parent="0" />
        <mxCell id="VqxVqscjtOG9NsngPvRN-1" value="" style="strokeWidth=1;shadow=0;dashed=0;align=center;html=1;shape=mxgraph.mockup.containers.browserWindow;rSize=0;strokeColor=#666666;mainText=,;recursiveResize=0;rounded=0;labelBackgroundColor=none;fontFamily=Verdana;fontSize=12" vertex="1" parent="1">
          <mxGeometry x="110" y="70" width="1050" height="2350" as="geometry" />
        </mxCell>
        <mxCell id="VqxVqscjtOG9NsngPvRN-2" value="NFL Games" style="strokeWidth=1;shadow=0;dashed=0;align=center;html=1;shape=mxgraph.mockup.containers.anchor;fontSize=17;fontColor=#666666;align=left;" vertex="1" parent="VqxVqscjtOG9NsngPvRN-1">
          <mxGeometry x="60" y="12" width="110" height="26" as="geometry" />
        </mxCell>
        <mxCell id="VqxVqscjtOG9NsngPvRN-3" value="https://www.spaname.com" style="strokeWidth=1;shadow=0;dashed=0;align=center;html=1;shape=mxgraph.mockup.containers.anchor;rSize=0;fontSize=17;fontColor=#666666;align=left;" vertex="1" parent="VqxVqscjtOG9NsngPvRN-1">
          <mxGeometry x="130" y="60" width="250" height="26" as="geometry" />
        </mxCell>
        <mxCell id="VqxVqscjtOG9NsngPvRN-4" value="&lt;div&gt;&lt;font style=&quot;font-size: 23px;&quot;&gt;Slogan&lt;/font&gt;&lt;/div&gt;" style="text;html=1;points=[];align=center;verticalAlign=top;spacingTop=-4;fontSize=30;fontFamily=Verdana" vertex="1" parent="VqxVqscjtOG9NsngPvRN-1">
          <mxGeometry x="425" y="190" width="200" height="50" as="geometry" />
        </mxCell>
        <mxCell id="VqxVqscjtOG9NsngPvRN-5" value="Search" style="strokeWidth=1;shadow=0;dashed=0;align=center;html=1;shape=mxgraph.mockup.forms.searchBox;strokeColor=#999999;mainText=;strokeColor2=#008cff;fontColor=#666666;fontSize=17;align=left;spacingLeft=3;rounded=0;labelBackgroundColor=none;" vertex="1" parent="VqxVqscjtOG9NsngPvRN-1">
          <mxGeometry x="820" y="120" width="220" height="30" as="geometry" />
        </mxCell>
        <mxCell id="VqxVqscjtOG9NsngPvRN-6" value="" style="verticalLabelPosition=bottom;shadow=0;dashed=0;align=center;html=1;verticalAlign=top;strokeWidth=1;shape=mxgraph.mockup.markup.line;strokeColor=#999999;rounded=0;labelBackgroundColor=none;fillColor=#ffffff;fontFamily=Verdana;fontSize=12;fontColor=#000000;" vertex="1" parent="VqxVqscjtOG9NsngPvRN-1">
          <mxGeometry y="280" width="1050" height="20" as="geometry" />
        </mxCell>
        <mxCell id="VqxVqscjtOG9NsngPvRN-7" value="GAMES HAPPENING NOW:" style="text;html=1;points=[];align=left;verticalAlign=top;spacingTop=-4;fontSize=15;fontFamily=Verdana" vertex="1" parent="VqxVqscjtOG9NsngPvRN-1">
          <mxGeometry x="25" y="310" width="170" height="30" as="geometry" />
        </mxCell>
        <mxCell id="VqxVqscjtOG9NsngPvRN-8" value="Button 1" style="strokeWidth=1;shadow=0;dashed=0;align=center;html=1;shape=mxgraph.mockup.buttons.button;strokeColor=#666666;mainText=;buttonStyle=round;fontSize=17;fontStyle=0;fillColor=none;whiteSpace=wrap;rounded=0;labelBackgroundColor=none;" vertex="1" parent="VqxVqscjtOG9NsngPvRN-1">
          <mxGeometry x="85" y="540" width="190" height="30" as="geometry" />
        </mxCell>
        <mxCell id="VqxVqscjtOG9NsngPvRN-9" value="Button 2" style="strokeWidth=1;shadow=0;dashed=0;align=center;html=1;shape=mxgraph.mockup.buttons.button;strokeColor=#666666;mainText=;buttonStyle=round;fontSize=17;fontStyle=0;fillColor=none;whiteSpace=wrap;rounded=0;labelBackgroundColor=none;" vertex="1" parent="VqxVqscjtOG9NsngPvRN-1">
          <mxGeometry x="410" y="540" width="190" height="30" as="geometry" />
        </mxCell>
        <mxCell id="VqxVqscjtOG9NsngPvRN-11" value="" style="verticalLabelPosition=bottom;shadow=0;dashed=0;align=center;html=1;verticalAlign=top;strokeWidth=1;shape=mxgraph.mockup.markup.line;strokeColor=#999999;rounded=0;labelBackgroundColor=none;fillColor=#ffffff;fontFamily=Verdana;fontSize=12;fontColor=#000000;" vertex="1" parent="VqxVqscjtOG9NsngPvRN-1">
          <mxGeometry y="140" width="1050" height="20" as="geometry" />
        </mxCell>
        <mxCell id="VqxVqscjtOG9NsngPvRN-12" value="&lt;font style=&quot;font-size: 20px;&quot;&gt;NFL Games&lt;span style=&quot;white-space: pre;&quot;&gt;&#x9;&lt;/span&gt;&lt;span style=&quot;white-space: pre;&quot;&gt;&#x9;&lt;/span&gt;TEAMS&amp;nbsp; ABOUT&amp;nbsp; GAMES&amp;nbsp; LIVE SCORES&lt;/font&gt;" style="text;html=1;points=[];align=left;verticalAlign=top;spacingTop=-4;fontSize=30;fontFamily=Verdana" vertex="1" parent="VqxVqscjtOG9NsngPvRN-1">
          <mxGeometry x="10" y="110" width="790" height="50" as="geometry" />
        </mxCell>
        <mxCell id="VqxVqscjtOG9NsngPvRN-13" value="" style="swimlane;startSize=0;" vertex="1" parent="VqxVqscjtOG9NsngPvRN-1">
          <mxGeometry x="95" y="350" width="170" height="170" as="geometry" />
        </mxCell>
        <mxCell id="VqxVqscjtOG9NsngPvRN-14" value="Game 1" style="text;html=1;align=center;verticalAlign=middle;whiteSpace=wrap;rounded=0;" vertex="1" parent="VqxVqscjtOG9NsngPvRN-13">
          <mxGeometry x="45" y="70" width="65" height="30" as="geometry" />
        </mxCell>
        <mxCell id="VqxVqscjtOG9NsngPvRN-15" value="" style="swimlane;startSize=0;" vertex="1" parent="VqxVqscjtOG9NsngPvRN-1">
          <mxGeometry x="410" y="350" width="180" height="170" as="geometry" />
        </mxCell>
        <mxCell id="VqxVqscjtOG9NsngPvRN-16" value="Game 2" style="text;html=1;align=center;verticalAlign=middle;whiteSpace=wrap;rounded=0;" vertex="1" parent="VqxVqscjtOG9NsngPvRN-15">
          <mxGeometry x="60" y="70" width="60" height="30" as="geometry" />
        </mxCell>
        <mxCell id="VqxVqscjtOG9NsngPvRN-17" value="" style="swimlane;startSize=0;" vertex="1" parent="VqxVqscjtOG9NsngPvRN-1">
          <mxGeometry x="730" y="350" width="180" height="170" as="geometry" />
        </mxCell>
        <mxCell id="VqxVqscjtOG9NsngPvRN-18" value="Game 3" style="text;html=1;align=center;verticalAlign=middle;whiteSpace=wrap;rounded=0;" vertex="1" parent="VqxVqscjtOG9NsngPvRN-17">
          <mxGeometry x="60" y="70" width="60" height="30" as="geometry" />
        </mxCell>
        <mxCell id="VqxVqscjtOG9NsngPvRN-19" value="Button 3" style="strokeWidth=1;shadow=0;dashed=0;align=center;html=1;shape=mxgraph.mockup.buttons.button;strokeColor=#666666;mainText=;buttonStyle=round;fontSize=17;fontStyle=0;fillColor=none;whiteSpace=wrap;rounded=0;labelBackgroundColor=none;" vertex="1" parent="VqxVqscjtOG9NsngPvRN-1">
          <mxGeometry x="730" y="540" width="190" height="30" as="geometry" />
        </mxCell>
        <mxCell id="VqxVqscjtOG9NsngPvRN-20" value="" style="swimlane;startSize=0;" vertex="1" parent="VqxVqscjtOG9NsngPvRN-1">
          <mxGeometry x="50" y="760" width="930" height="50" as="geometry" />
        </mxCell>
        <mxCell id="VqxVqscjtOG9NsngPvRN-21" value="Search teams" style="text;html=1;points=[];align=left;verticalAlign=top;spacingTop=-4;fontSize=15;fontFamily=Verdana" vertex="1" parent="VqxVqscjtOG9NsngPvRN-20">
          <mxGeometry x="430" y="10" width="170" height="30" as="geometry" />
        </mxCell>
        <mxCell id="VqxVqscjtOG9NsngPvRN-47" value="Search" style="strokeWidth=1;shadow=0;dashed=0;align=center;html=1;shape=mxgraph.mockup.forms.searchBox;strokeColor=#999999;mainText=;strokeColor2=#008cff;fontColor=#666666;fontSize=17;align=left;spacingLeft=3;rounded=0;labelBackgroundColor=none;" vertex="1" parent="VqxVqscjtOG9NsngPvRN-20">
          <mxGeometry x="700" y="10" width="220" height="30" as="geometry" />
        </mxCell>
        <mxCell id="VqxVqscjtOG9NsngPvRN-22" value="" style="rounded=0;whiteSpace=wrap;html=1;" vertex="1" parent="VqxVqscjtOG9NsngPvRN-1">
          <mxGeometry x="50" y="630" width="950" height="100" as="geometry" />
        </mxCell>
        <mxCell id="VqxVqscjtOG9NsngPvRN-23" value="ABOUT SECTION" style="text;html=1;align=center;verticalAlign=middle;whiteSpace=wrap;rounded=0;" vertex="1" parent="VqxVqscjtOG9NsngPvRN-1">
          <mxGeometry x="495" y="665" width="60" height="30" as="geometry" />
        </mxCell>
        <mxCell id="VqxVqscjtOG9NsngPvRN-28" value="" style="verticalLabelPosition=bottom;shadow=0;dashed=0;align=center;html=1;verticalAlign=top;strokeWidth=1;shape=mxgraph.mockup.markup.line;strokeColor=#999999;rounded=0;labelBackgroundColor=none;fillColor=#ffffff;fontFamily=Verdana;fontSize=12;fontColor=#000000;" vertex="1" parent="VqxVqscjtOG9NsngPvRN-1">
          <mxGeometry y="2280" width="1050" height="20" as="geometry" />
        </mxCell>
        <mxCell id="VqxVqscjtOG9NsngPvRN-29" value="Footer - Copyright Name and my name" style="text;html=1;align=center;verticalAlign=middle;whiteSpace=wrap;rounded=0;" vertex="1" parent="VqxVqscjtOG9NsngPvRN-1">
          <mxGeometry x="310" y="2310" width="373" height="30" as="geometry" />
        </mxCell>
        <mxCell id="VqxVqscjtOG9NsngPvRN-48" value="&lt;font style=&quot;font-size: 20px;&quot;&gt;Create squares for all 32 teams in 4 by 8 grid form with roster and schedule button&lt;/font&gt;" style="text;html=1;align=center;verticalAlign=middle;whiteSpace=wrap;rounded=0;" vertex="1" parent="VqxVqscjtOG9NsngPvRN-1">
          <mxGeometry x="311.5" y="840" width="375" height="30" as="geometry" />
        </mxCell>
        <mxCell id="VqxVqscjtOG9NsngPvRN-107" value="" style="group" vertex="1" connectable="0" parent="VqxVqscjtOG9NsngPvRN-1">
          <mxGeometry x="45" y="890" width="860" height="170" as="geometry" />
        </mxCell>
        <mxCell id="VqxVqscjtOG9NsngPvRN-93" value="" style="group" vertex="1" connectable="0" parent="VqxVqscjtOG9NsngPvRN-107">
          <mxGeometry width="195" height="170" as="geometry" />
        </mxCell>
        <mxCell id="VqxVqscjtOG9NsngPvRN-24" value="" style="rounded=0;whiteSpace=wrap;html=1;" vertex="1" parent="VqxVqscjtOG9NsngPvRN-93">
          <mxGeometry width="195" height="170" as="geometry" />
        </mxCell>
        <mxCell id="VqxVqscjtOG9NsngPvRN-91" value="Button 1" style="strokeWidth=1;shadow=0;dashed=0;align=center;html=1;shape=mxgraph.mockup.buttons.button;strokeColor=#666666;mainText=;buttonStyle=round;fontSize=17;fontStyle=0;fillColor=none;whiteSpace=wrap;rounded=0;labelBackgroundColor=none;" vertex="1" parent="VqxVqscjtOG9NsngPvRN-93">
          <mxGeometry x="15" y="130" width="80" height="30" as="geometry" />
        </mxCell>
        <mxCell id="VqxVqscjtOG9NsngPvRN-92" value="Button 2" style="strokeWidth=1;shadow=0;dashed=0;align=center;html=1;shape=mxgraph.mockup.buttons.button;strokeColor=#666666;mainText=;buttonStyle=round;fontSize=17;fontStyle=0;fillColor=none;whiteSpace=wrap;rounded=0;labelBackgroundColor=none;" vertex="1" parent="VqxVqscjtOG9NsngPvRN-93">
          <mxGeometry x="105" y="130" width="80" height="30" as="geometry" />
        </mxCell>
        <mxCell id="VqxVqscjtOG9NsngPvRN-94" value="" style="group" vertex="1" connectable="0" parent="VqxVqscjtOG9NsngPvRN-107">
          <mxGeometry x="215" width="195" height="170" as="geometry" />
        </mxCell>
        <mxCell id="VqxVqscjtOG9NsngPvRN-95" value="" style="rounded=0;whiteSpace=wrap;html=1;" vertex="1" parent="VqxVqscjtOG9NsngPvRN-94">
          <mxGeometry width="195" height="170" as="geometry" />
        </mxCell>
        <mxCell id="VqxVqscjtOG9NsngPvRN-96" value="Button 1" style="strokeWidth=1;shadow=0;dashed=0;align=center;html=1;shape=mxgraph.mockup.buttons.button;strokeColor=#666666;mainText=;buttonStyle=round;fontSize=17;fontStyle=0;fillColor=none;whiteSpace=wrap;rounded=0;labelBackgroundColor=none;" vertex="1" parent="VqxVqscjtOG9NsngPvRN-94">
          <mxGeometry x="15" y="130" width="80" height="30" as="geometry" />
        </mxCell>
        <mxCell id="VqxVqscjtOG9NsngPvRN-97" value="Button 2" style="strokeWidth=1;shadow=0;dashed=0;align=center;html=1;shape=mxgraph.mockup.buttons.button;strokeColor=#666666;mainText=;buttonStyle=round;fontSize=17;fontStyle=0;fillColor=none;whiteSpace=wrap;rounded=0;labelBackgroundColor=none;" vertex="1" parent="VqxVqscjtOG9NsngPvRN-94">
          <mxGeometry x="105" y="130" width="80" height="30" as="geometry" />
        </mxCell>
        <mxCell id="VqxVqscjtOG9NsngPvRN-98" value="" style="group" vertex="1" connectable="0" parent="VqxVqscjtOG9NsngPvRN-107">
          <mxGeometry x="435" width="195" height="170" as="geometry" />
        </mxCell>
        <mxCell id="VqxVqscjtOG9NsngPvRN-99" value="" style="rounded=0;whiteSpace=wrap;html=1;" vertex="1" parent="VqxVqscjtOG9NsngPvRN-98">
          <mxGeometry width="195" height="170" as="geometry" />
        </mxCell>
        <mxCell id="VqxVqscjtOG9NsngPvRN-100" value="Button 1" style="strokeWidth=1;shadow=0;dashed=0;align=center;html=1;shape=mxgraph.mockup.buttons.button;strokeColor=#666666;mainText=;buttonStyle=round;fontSize=17;fontStyle=0;fillColor=none;whiteSpace=wrap;rounded=0;labelBackgroundColor=none;" vertex="1" parent="VqxVqscjtOG9NsngPvRN-98">
          <mxGeometry x="15" y="130" width="80" height="30" as="geometry" />
        </mxCell>
        <mxCell id="VqxVqscjtOG9NsngPvRN-101" value="Button 2" style="strokeWidth=1;shadow=0;dashed=0;align=center;html=1;shape=mxgraph.mockup.buttons.button;strokeColor=#666666;mainText=;buttonStyle=round;fontSize=17;fontStyle=0;fillColor=none;whiteSpace=wrap;rounded=0;labelBackgroundColor=none;" vertex="1" parent="VqxVqscjtOG9NsngPvRN-98">
          <mxGeometry x="105" y="130" width="80" height="30" as="geometry" />
        </mxCell>
        <mxCell id="VqxVqscjtOG9NsngPvRN-102" value="" style="group" vertex="1" connectable="0" parent="VqxVqscjtOG9NsngPvRN-107">
          <mxGeometry x="665" width="195" height="170" as="geometry" />
        </mxCell>
        <mxCell id="VqxVqscjtOG9NsngPvRN-103" value="" style="rounded=0;whiteSpace=wrap;html=1;" vertex="1" parent="VqxVqscjtOG9NsngPvRN-102">
          <mxGeometry width="195" height="170" as="geometry" />
        </mxCell>
        <mxCell id="VqxVqscjtOG9NsngPvRN-104" value="Button 1" style="strokeWidth=1;shadow=0;dashed=0;align=center;html=1;shape=mxgraph.mockup.buttons.button;strokeColor=#666666;mainText=;buttonStyle=round;fontSize=17;fontStyle=0;fillColor=none;whiteSpace=wrap;rounded=0;labelBackgroundColor=none;" vertex="1" parent="VqxVqscjtOG9NsngPvRN-102">
          <mxGeometry x="15" y="130" width="80" height="30" as="geometry" />
        </mxCell>
        <mxCell id="VqxVqscjtOG9NsngPvRN-105" value="Button 2" style="strokeWidth=1;shadow=0;dashed=0;align=center;html=1;shape=mxgraph.mockup.buttons.button;strokeColor=#666666;mainText=;buttonStyle=round;fontSize=17;fontStyle=0;fillColor=none;whiteSpace=wrap;rounded=0;labelBackgroundColor=none;" vertex="1" parent="VqxVqscjtOG9NsngPvRN-102">
          <mxGeometry x="105" y="130" width="80" height="30" as="geometry" />
        </mxCell>
        <mxCell id="VqxVqscjtOG9NsngPvRN-108" value="" style="group" vertex="1" connectable="0" parent="VqxVqscjtOG9NsngPvRN-1">
          <mxGeometry x="50" y="1090" width="860" height="170" as="geometry" />
        </mxCell>
        <mxCell id="VqxVqscjtOG9NsngPvRN-109" value="" style="group" vertex="1" connectable="0" parent="VqxVqscjtOG9NsngPvRN-108">
          <mxGeometry width="195" height="170" as="geometry" />
        </mxCell>
        <mxCell id="VqxVqscjtOG9NsngPvRN-110" value="" style="rounded=0;whiteSpace=wrap;html=1;" vertex="1" parent="VqxVqscjtOG9NsngPvRN-109">
          <mxGeometry width="195" height="170" as="geometry" />
        </mxCell>
        <mxCell id="VqxVqscjtOG9NsngPvRN-111" value="Button 1" style="strokeWidth=1;shadow=0;dashed=0;align=center;html=1;shape=mxgraph.mockup.buttons.button;strokeColor=#666666;mainText=;buttonStyle=round;fontSize=17;fontStyle=0;fillColor=none;whiteSpace=wrap;rounded=0;labelBackgroundColor=none;" vertex="1" parent="VqxVqscjtOG9NsngPvRN-109">
          <mxGeometry x="15" y="130" width="80" height="30" as="geometry" />
        </mxCell>
        <mxCell id="VqxVqscjtOG9NsngPvRN-112" value="Button 2" style="strokeWidth=1;shadow=0;dashed=0;align=center;html=1;shape=mxgraph.mockup.buttons.button;strokeColor=#666666;mainText=;buttonStyle=round;fontSize=17;fontStyle=0;fillColor=none;whiteSpace=wrap;rounded=0;labelBackgroundColor=none;" vertex="1" parent="VqxVqscjtOG9NsngPvRN-109">
          <mxGeometry x="105" y="130" width="80" height="30" as="geometry" />
        </mxCell>
        <mxCell id="VqxVqscjtOG9NsngPvRN-113" value="" style="group" vertex="1" connectable="0" parent="VqxVqscjtOG9NsngPvRN-108">
          <mxGeometry x="215" width="195" height="170" as="geometry" />
        </mxCell>
        <mxCell id="VqxVqscjtOG9NsngPvRN-114" value="" style="rounded=0;whiteSpace=wrap;html=1;" vertex="1" parent="VqxVqscjtOG9NsngPvRN-113">
          <mxGeometry width="195" height="170" as="geometry" />
        </mxCell>
        <mxCell id="VqxVqscjtOG9NsngPvRN-115" value="Button 1" style="strokeWidth=1;shadow=0;dashed=0;align=center;html=1;shape=mxgraph.mockup.buttons.button;strokeColor=#666666;mainText=;buttonStyle=round;fontSize=17;fontStyle=0;fillColor=none;whiteSpace=wrap;rounded=0;labelBackgroundColor=none;" vertex="1" parent="VqxVqscjtOG9NsngPvRN-113">
          <mxGeometry x="15" y="130" width="80" height="30" as="geometry" />
        </mxCell>
        <mxCell id="VqxVqscjtOG9NsngPvRN-116" value="Button 2" style="strokeWidth=1;shadow=0;dashed=0;align=center;html=1;shape=mxgraph.mockup.buttons.button;strokeColor=#666666;mainText=;buttonStyle=round;fontSize=17;fontStyle=0;fillColor=none;whiteSpace=wrap;rounded=0;labelBackgroundColor=none;" vertex="1" parent="VqxVqscjtOG9NsngPvRN-113">
          <mxGeometry x="105" y="130" width="80" height="30" as="geometry" />
        </mxCell>
        <mxCell id="VqxVqscjtOG9NsngPvRN-117" value="" style="group" vertex="1" connectable="0" parent="VqxVqscjtOG9NsngPvRN-108">
          <mxGeometry x="435" width="195" height="170" as="geometry" />
        </mxCell>
        <mxCell id="VqxVqscjtOG9NsngPvRN-118" value="" style="rounded=0;whiteSpace=wrap;html=1;" vertex="1" parent="VqxVqscjtOG9NsngPvRN-117">
          <mxGeometry width="195" height="170" as="geometry" />
        </mxCell>
        <mxCell id="VqxVqscjtOG9NsngPvRN-119" value="Button 1" style="strokeWidth=1;shadow=0;dashed=0;align=center;html=1;shape=mxgraph.mockup.buttons.button;strokeColor=#666666;mainText=;buttonStyle=round;fontSize=17;fontStyle=0;fillColor=none;whiteSpace=wrap;rounded=0;labelBackgroundColor=none;" vertex="1" parent="VqxVqscjtOG9NsngPvRN-117">
          <mxGeometry x="15" y="130" width="80" height="30" as="geometry" />
        </mxCell>
        <mxCell id="VqxVqscjtOG9NsngPvRN-120" value="Button 2" style="strokeWidth=1;shadow=0;dashed=0;align=center;html=1;shape=mxgraph.mockup.buttons.button;strokeColor=#666666;mainText=;buttonStyle=round;fontSize=17;fontStyle=0;fillColor=none;whiteSpace=wrap;rounded=0;labelBackgroundColor=none;" vertex="1" parent="VqxVqscjtOG9NsngPvRN-117">
          <mxGeometry x="105" y="130" width="80" height="30" as="geometry" />
        </mxCell>
        <mxCell id="VqxVqscjtOG9NsngPvRN-121" value="" style="group" vertex="1" connectable="0" parent="VqxVqscjtOG9NsngPvRN-108">
          <mxGeometry x="665" width="195" height="170" as="geometry" />
        </mxCell>
        <mxCell id="VqxVqscjtOG9NsngPvRN-122" value="" style="rounded=0;whiteSpace=wrap;html=1;" vertex="1" parent="VqxVqscjtOG9NsngPvRN-121">
          <mxGeometry width="195" height="170" as="geometry" />
        </mxCell>
        <mxCell id="VqxVqscjtOG9NsngPvRN-123" value="Button 1" style="strokeWidth=1;shadow=0;dashed=0;align=center;html=1;shape=mxgraph.mockup.buttons.button;strokeColor=#666666;mainText=;buttonStyle=round;fontSize=17;fontStyle=0;fillColor=none;whiteSpace=wrap;rounded=0;labelBackgroundColor=none;" vertex="1" parent="VqxVqscjtOG9NsngPvRN-121">
          <mxGeometry x="15" y="130" width="80" height="30" as="geometry" />
        </mxCell>
        <mxCell id="VqxVqscjtOG9NsngPvRN-124" value="Button 2" style="strokeWidth=1;shadow=0;dashed=0;align=center;html=1;shape=mxgraph.mockup.buttons.button;strokeColor=#666666;mainText=;buttonStyle=round;fontSize=17;fontStyle=0;fillColor=none;whiteSpace=wrap;rounded=0;labelBackgroundColor=none;" vertex="1" parent="VqxVqscjtOG9NsngPvRN-121">
          <mxGeometry x="105" y="130" width="80" height="30" as="geometry" />
        </mxCell>
        <mxCell id="VqxVqscjtOG9NsngPvRN-125" value="" style="group" vertex="1" connectable="0" parent="VqxVqscjtOG9NsngPvRN-1">
          <mxGeometry x="50" y="1280" width="860" height="170" as="geometry" />
        </mxCell>
        <mxCell id="VqxVqscjtOG9NsngPvRN-126" value="" style="group" vertex="1" connectable="0" parent="VqxVqscjtOG9NsngPvRN-125">
          <mxGeometry width="195" height="170" as="geometry" />
        </mxCell>
        <mxCell id="VqxVqscjtOG9NsngPvRN-127" value="" style="rounded=0;whiteSpace=wrap;html=1;" vertex="1" parent="VqxVqscjtOG9NsngPvRN-126">
          <mxGeometry width="195" height="170" as="geometry" />
        </mxCell>
        <mxCell id="VqxVqscjtOG9NsngPvRN-128" value="Button 1" style="strokeWidth=1;shadow=0;dashed=0;align=center;html=1;shape=mxgraph.mockup.buttons.button;strokeColor=#666666;mainText=;buttonStyle=round;fontSize=17;fontStyle=0;fillColor=none;whiteSpace=wrap;rounded=0;labelBackgroundColor=none;" vertex="1" parent="VqxVqscjtOG9NsngPvRN-126">
          <mxGeometry x="15" y="130" width="80" height="30" as="geometry" />
        </mxCell>
        <mxCell id="VqxVqscjtOG9NsngPvRN-129" value="Button 2" style="strokeWidth=1;shadow=0;dashed=0;align=center;html=1;shape=mxgraph.mockup.buttons.button;strokeColor=#666666;mainText=;buttonStyle=round;fontSize=17;fontStyle=0;fillColor=none;whiteSpace=wrap;rounded=0;labelBackgroundColor=none;" vertex="1" parent="VqxVqscjtOG9NsngPvRN-126">
          <mxGeometry x="105" y="130" width="80" height="30" as="geometry" />
        </mxCell>
        <mxCell id="VqxVqscjtOG9NsngPvRN-130" value="" style="group" vertex="1" connectable="0" parent="VqxVqscjtOG9NsngPvRN-125">
          <mxGeometry x="215" width="195" height="170" as="geometry" />
        </mxCell>
        <mxCell id="VqxVqscjtOG9NsngPvRN-131" value="" style="rounded=0;whiteSpace=wrap;html=1;" vertex="1" parent="VqxVqscjtOG9NsngPvRN-130">
          <mxGeometry width="195" height="170" as="geometry" />
        </mxCell>
        <mxCell id="VqxVqscjtOG9NsngPvRN-132" value="Button 1" style="strokeWidth=1;shadow=0;dashed=0;align=center;html=1;shape=mxgraph.mockup.buttons.button;strokeColor=#666666;mainText=;buttonStyle=round;fontSize=17;fontStyle=0;fillColor=none;whiteSpace=wrap;rounded=0;labelBackgroundColor=none;" vertex="1" parent="VqxVqscjtOG9NsngPvRN-130">
          <mxGeometry x="15" y="130" width="80" height="30" as="geometry" />
        </mxCell>
        <mxCell id="VqxVqscjtOG9NsngPvRN-133" value="Button 2" style="strokeWidth=1;shadow=0;dashed=0;align=center;html=1;shape=mxgraph.mockup.buttons.button;strokeColor=#666666;mainText=;buttonStyle=round;fontSize=17;fontStyle=0;fillColor=none;whiteSpace=wrap;rounded=0;labelBackgroundColor=none;" vertex="1" parent="VqxVqscjtOG9NsngPvRN-130">
          <mxGeometry x="105" y="130" width="80" height="30" as="geometry" />
        </mxCell>
        <mxCell id="VqxVqscjtOG9NsngPvRN-134" value="" style="group" vertex="1" connectable="0" parent="VqxVqscjtOG9NsngPvRN-125">
          <mxGeometry x="435" width="195" height="170" as="geometry" />
        </mxCell>
        <mxCell id="VqxVqscjtOG9NsngPvRN-135" value="" style="rounded=0;whiteSpace=wrap;html=1;" vertex="1" parent="VqxVqscjtOG9NsngPvRN-134">
          <mxGeometry width="195" height="170" as="geometry" />
        </mxCell>
        <mxCell id="VqxVqscjtOG9NsngPvRN-136" value="Button 1" style="strokeWidth=1;shadow=0;dashed=0;align=center;html=1;shape=mxgraph.mockup.buttons.button;strokeColor=#666666;mainText=;buttonStyle=round;fontSize=17;fontStyle=0;fillColor=none;whiteSpace=wrap;rounded=0;labelBackgroundColor=none;" vertex="1" parent="VqxVqscjtOG9NsngPvRN-134">
          <mxGeometry x="15" y="130" width="80" height="30" as="geometry" />
        </mxCell>
        <mxCell id="VqxVqscjtOG9NsngPvRN-137" value="Button 2" style="strokeWidth=1;shadow=0;dashed=0;align=center;html=1;shape=mxgraph.mockup.buttons.button;strokeColor=#666666;mainText=;buttonStyle=round;fontSize=17;fontStyle=0;fillColor=none;whiteSpace=wrap;rounded=0;labelBackgroundColor=none;" vertex="1" parent="VqxVqscjtOG9NsngPvRN-134">
          <mxGeometry x="105" y="130" width="80" height="30" as="geometry" />
        </mxCell>
        <mxCell id="VqxVqscjtOG9NsngPvRN-138" value="" style="group" vertex="1" connectable="0" parent="VqxVqscjtOG9NsngPvRN-125">
          <mxGeometry x="665" width="195" height="170" as="geometry" />
        </mxCell>
        <mxCell id="VqxVqscjtOG9NsngPvRN-139" value="" style="rounded=0;whiteSpace=wrap;html=1;" vertex="1" parent="VqxVqscjtOG9NsngPvRN-138">
          <mxGeometry width="195" height="170" as="geometry" />
        </mxCell>
        <mxCell id="VqxVqscjtOG9NsngPvRN-140" value="Button 1" style="strokeWidth=1;shadow=0;dashed=0;align=center;html=1;shape=mxgraph.mockup.buttons.button;strokeColor=#666666;mainText=;buttonStyle=round;fontSize=17;fontStyle=0;fillColor=none;whiteSpace=wrap;rounded=0;labelBackgroundColor=none;" vertex="1" parent="VqxVqscjtOG9NsngPvRN-138">
          <mxGeometry x="15" y="130" width="80" height="30" as="geometry" />
        </mxCell>
        <mxCell id="VqxVqscjtOG9NsngPvRN-141" value="Button 2" style="strokeWidth=1;shadow=0;dashed=0;align=center;html=1;shape=mxgraph.mockup.buttons.button;strokeColor=#666666;mainText=;buttonStyle=round;fontSize=17;fontStyle=0;fillColor=none;whiteSpace=wrap;rounded=0;labelBackgroundColor=none;" vertex="1" parent="VqxVqscjtOG9NsngPvRN-138">
          <mxGeometry x="105" y="130" width="80" height="30" as="geometry" />
        </mxCell>
        <mxCell id="VqxVqscjtOG9NsngPvRN-142" value="&lt;font style=&quot;font-size: 23px;&quot;&gt;Roster&amp;nbsp;&lt;/font&gt;" style="rounded=0;whiteSpace=wrap;html=1;" vertex="1" parent="VqxVqscjtOG9NsngPvRN-1">
          <mxGeometry x="45" y="1540" width="955" height="640" as="geometry" />
        </mxCell>
        <mxCell id="VqxVqscjtOG9NsngPvRN-143" value="&lt;font style=&quot;font-size: 20px;&quot;&gt;Offense/Defesne&lt;/font&gt;" style="text;html=1;align=center;verticalAlign=middle;whiteSpace=wrap;rounded=0;" vertex="1" parent="VqxVqscjtOG9NsngPvRN-1">
          <mxGeometry x="85" y="1500" width="60" height="30" as="geometry" />
        </mxCell>
        <mxCell id="VqxVqscjtOG9NsngPvRN-145" value="" style="strokeWidth=1;shadow=0;dashed=0;align=center;html=1;shape=mxgraph.mockup.containers.browserWindow;rSize=0;strokeColor=#666666;mainText=,;recursiveResize=0;rounded=0;labelBackgroundColor=none;fontFamily=Verdana;fontSize=12" vertex="1" parent="1">
          <mxGeometry x="1230" y="70" width="1050" height="2350" as="geometry" />
        </mxCell>
        <mxCell id="VqxVqscjtOG9NsngPvRN-146" value="NFL Games" style="strokeWidth=1;shadow=0;dashed=0;align=center;html=1;shape=mxgraph.mockup.containers.anchor;fontSize=17;fontColor=#666666;align=left;" vertex="1" parent="VqxVqscjtOG9NsngPvRN-145">
          <mxGeometry x="60" y="12" width="110" height="26" as="geometry" />
        </mxCell>
        <mxCell id="VqxVqscjtOG9NsngPvRN-147" value="https://www.spaname.com" style="strokeWidth=1;shadow=0;dashed=0;align=center;html=1;shape=mxgraph.mockup.containers.anchor;rSize=0;fontSize=17;fontColor=#666666;align=left;" vertex="1" parent="VqxVqscjtOG9NsngPvRN-145">
          <mxGeometry x="130" y="60" width="250" height="26" as="geometry" />
        </mxCell>
        <mxCell id="VqxVqscjtOG9NsngPvRN-148" value="&lt;div&gt;&lt;font style=&quot;font-size: 23px;&quot;&gt;Slogan&lt;/font&gt;&lt;/div&gt;" style="text;html=1;points=[];align=center;verticalAlign=top;spacingTop=-4;fontSize=30;fontFamily=Verdana" vertex="1" parent="VqxVqscjtOG9NsngPvRN-145">
          <mxGeometry x="425" y="190" width="200" height="50" as="geometry" />
        </mxCell>
        <mxCell id="VqxVqscjtOG9NsngPvRN-149" value="Search" style="strokeWidth=1;shadow=0;dashed=0;align=center;html=1;shape=mxgraph.mockup.forms.searchBox;strokeColor=#999999;mainText=;strokeColor2=#008cff;fontColor=#666666;fontSize=17;align=left;spacingLeft=3;rounded=0;labelBackgroundColor=none;" vertex="1" parent="VqxVqscjtOG9NsngPvRN-145">
          <mxGeometry x="820" y="120" width="220" height="30" as="geometry" />
        </mxCell>
        <mxCell id="VqxVqscjtOG9NsngPvRN-150" value="" style="verticalLabelPosition=bottom;shadow=0;dashed=0;align=center;html=1;verticalAlign=top;strokeWidth=1;shape=mxgraph.mockup.markup.line;strokeColor=#999999;rounded=0;labelBackgroundColor=none;fillColor=#ffffff;fontFamily=Verdana;fontSize=12;fontColor=#000000;" vertex="1" parent="VqxVqscjtOG9NsngPvRN-145">
          <mxGeometry y="280" width="1050" height="20" as="geometry" />
        </mxCell>
        <mxCell id="VqxVqscjtOG9NsngPvRN-151" value="GAMES HAPPENING NOW:" style="text;html=1;points=[];align=left;verticalAlign=top;spacingTop=-4;fontSize=15;fontFamily=Verdana" vertex="1" parent="VqxVqscjtOG9NsngPvRN-145">
          <mxGeometry x="25" y="310" width="170" height="30" as="geometry" />
        </mxCell>
        <mxCell id="VqxVqscjtOG9NsngPvRN-152" value="Button 1" style="strokeWidth=1;shadow=0;dashed=0;align=center;html=1;shape=mxgraph.mockup.buttons.button;strokeColor=#666666;mainText=;buttonStyle=round;fontSize=17;fontStyle=0;fillColor=none;whiteSpace=wrap;rounded=0;labelBackgroundColor=none;" vertex="1" parent="VqxVqscjtOG9NsngPvRN-145">
          <mxGeometry x="85" y="540" width="190" height="30" as="geometry" />
        </mxCell>
        <mxCell id="VqxVqscjtOG9NsngPvRN-153" value="Button 2" style="strokeWidth=1;shadow=0;dashed=0;align=center;html=1;shape=mxgraph.mockup.buttons.button;strokeColor=#666666;mainText=;buttonStyle=round;fontSize=17;fontStyle=0;fillColor=none;whiteSpace=wrap;rounded=0;labelBackgroundColor=none;" vertex="1" parent="VqxVqscjtOG9NsngPvRN-145">
          <mxGeometry x="410" y="540" width="190" height="30" as="geometry" />
        </mxCell>
        <mxCell id="VqxVqscjtOG9NsngPvRN-154" value="" style="verticalLabelPosition=bottom;shadow=0;dashed=0;align=center;html=1;verticalAlign=top;strokeWidth=1;shape=mxgraph.mockup.markup.line;strokeColor=#999999;rounded=0;labelBackgroundColor=none;fillColor=#ffffff;fontFamily=Verdana;fontSize=12;fontColor=#000000;" vertex="1" parent="VqxVqscjtOG9NsngPvRN-145">
          <mxGeometry y="140" width="1050" height="20" as="geometry" />
        </mxCell>
        <mxCell id="VqxVqscjtOG9NsngPvRN-155" value="&lt;font style=&quot;font-size: 20px;&quot;&gt;NFL Games&lt;span style=&quot;white-space: pre;&quot;&gt;&#x9;&lt;/span&gt;&lt;span style=&quot;white-space: pre;&quot;&gt;&#x9;&lt;/span&gt;TEAMS&amp;nbsp; ABOUT&amp;nbsp; GAMES&amp;nbsp; LIVE SCORES&lt;/font&gt;" style="text;html=1;points=[];align=left;verticalAlign=top;spacingTop=-4;fontSize=30;fontFamily=Verdana" vertex="1" parent="VqxVqscjtOG9NsngPvRN-145">
          <mxGeometry x="10" y="110" width="790" height="50" as="geometry" />
        </mxCell>
        <mxCell id="VqxVqscjtOG9NsngPvRN-156" value="" style="swimlane;startSize=0;" vertex="1" parent="VqxVqscjtOG9NsngPvRN-145">
          <mxGeometry x="95" y="350" width="170" height="170" as="geometry" />
        </mxCell>
        <mxCell id="VqxVqscjtOG9NsngPvRN-157" value="Game 1" style="text;html=1;align=center;verticalAlign=middle;whiteSpace=wrap;rounded=0;" vertex="1" parent="VqxVqscjtOG9NsngPvRN-156">
          <mxGeometry x="45" y="70" width="65" height="30" as="geometry" />
        </mxCell>
        <mxCell id="VqxVqscjtOG9NsngPvRN-158" value="" style="swimlane;startSize=0;" vertex="1" parent="VqxVqscjtOG9NsngPvRN-145">
          <mxGeometry x="410" y="350" width="180" height="170" as="geometry" />
        </mxCell>
        <mxCell id="VqxVqscjtOG9NsngPvRN-159" value="Game 2" style="text;html=1;align=center;verticalAlign=middle;whiteSpace=wrap;rounded=0;" vertex="1" parent="VqxVqscjtOG9NsngPvRN-158">
          <mxGeometry x="60" y="70" width="60" height="30" as="geometry" />
        </mxCell>
        <mxCell id="VqxVqscjtOG9NsngPvRN-160" value="" style="swimlane;startSize=0;" vertex="1" parent="VqxVqscjtOG9NsngPvRN-145">
          <mxGeometry x="730" y="350" width="180" height="170" as="geometry" />
        </mxCell>
        <mxCell id="VqxVqscjtOG9NsngPvRN-161" value="Game 3" style="text;html=1;align=center;verticalAlign=middle;whiteSpace=wrap;rounded=0;" vertex="1" parent="VqxVqscjtOG9NsngPvRN-160">
          <mxGeometry x="60" y="70" width="60" height="30" as="geometry" />
        </mxCell>
        <mxCell id="VqxVqscjtOG9NsngPvRN-162" value="Button 3" style="strokeWidth=1;shadow=0;dashed=0;align=center;html=1;shape=mxgraph.mockup.buttons.button;strokeColor=#666666;mainText=;buttonStyle=round;fontSize=17;fontStyle=0;fillColor=none;whiteSpace=wrap;rounded=0;labelBackgroundColor=none;" vertex="1" parent="VqxVqscjtOG9NsngPvRN-145">
          <mxGeometry x="730" y="540" width="190" height="30" as="geometry" />
        </mxCell>
        <mxCell id="VqxVqscjtOG9NsngPvRN-163" value="" style="swimlane;startSize=0;" vertex="1" parent="VqxVqscjtOG9NsngPvRN-145">
          <mxGeometry x="50" y="760" width="930" height="50" as="geometry" />
        </mxCell>
        <mxCell id="VqxVqscjtOG9NsngPvRN-164" value="Search teams" style="text;html=1;points=[];align=left;verticalAlign=top;spacingTop=-4;fontSize=15;fontFamily=Verdana" vertex="1" parent="VqxVqscjtOG9NsngPvRN-163">
          <mxGeometry x="430" y="10" width="170" height="30" as="geometry" />
        </mxCell>
        <mxCell id="VqxVqscjtOG9NsngPvRN-165" value="Search" style="strokeWidth=1;shadow=0;dashed=0;align=center;html=1;shape=mxgraph.mockup.forms.searchBox;strokeColor=#999999;mainText=;strokeColor2=#008cff;fontColor=#666666;fontSize=17;align=left;spacingLeft=3;rounded=0;labelBackgroundColor=none;" vertex="1" parent="VqxVqscjtOG9NsngPvRN-163">
          <mxGeometry x="700" y="10" width="220" height="30" as="geometry" />
        </mxCell>
        <mxCell id="VqxVqscjtOG9NsngPvRN-166" value="" style="rounded=0;whiteSpace=wrap;html=1;" vertex="1" parent="VqxVqscjtOG9NsngPvRN-145">
          <mxGeometry x="50" y="630" width="950" height="100" as="geometry" />
        </mxCell>
        <mxCell id="VqxVqscjtOG9NsngPvRN-167" value="ABOUT SECTION" style="text;html=1;align=center;verticalAlign=middle;whiteSpace=wrap;rounded=0;" vertex="1" parent="VqxVqscjtOG9NsngPvRN-145">
          <mxGeometry x="495" y="665" width="60" height="30" as="geometry" />
        </mxCell>
        <mxCell id="VqxVqscjtOG9NsngPvRN-168" value="" style="verticalLabelPosition=bottom;shadow=0;dashed=0;align=center;html=1;verticalAlign=top;strokeWidth=1;shape=mxgraph.mockup.markup.line;strokeColor=#999999;rounded=0;labelBackgroundColor=none;fillColor=#ffffff;fontFamily=Verdana;fontSize=12;fontColor=#000000;" vertex="1" parent="VqxVqscjtOG9NsngPvRN-145">
          <mxGeometry y="2280" width="1050" height="20" as="geometry" />
        </mxCell>
        <mxCell id="VqxVqscjtOG9NsngPvRN-169" value="Footer - Copyright Name and my name" style="text;html=1;align=center;verticalAlign=middle;whiteSpace=wrap;rounded=0;" vertex="1" parent="VqxVqscjtOG9NsngPvRN-145">
          <mxGeometry x="310" y="2310" width="373" height="30" as="geometry" />
        </mxCell>
        <mxCell id="VqxVqscjtOG9NsngPvRN-170" value="&lt;font style=&quot;font-size: 20px;&quot;&gt;Create squares for all 32 teams in 4 by 8 grid form with roster and schedule button&lt;/font&gt;" style="text;html=1;align=center;verticalAlign=middle;whiteSpace=wrap;rounded=0;" vertex="1" parent="VqxVqscjtOG9NsngPvRN-145">
          <mxGeometry x="311.5" y="840" width="375" height="30" as="geometry" />
        </mxCell>
        <mxCell id="VqxVqscjtOG9NsngPvRN-171" value="" style="group" vertex="1" connectable="0" parent="VqxVqscjtOG9NsngPvRN-145">
          <mxGeometry x="45" y="890" width="860" height="170" as="geometry" />
        </mxCell>
        <mxCell id="VqxVqscjtOG9NsngPvRN-172" value="" style="group" vertex="1" connectable="0" parent="VqxVqscjtOG9NsngPvRN-171">
          <mxGeometry width="195" height="170" as="geometry" />
        </mxCell>
        <mxCell id="VqxVqscjtOG9NsngPvRN-173" value="" style="rounded=0;whiteSpace=wrap;html=1;" vertex="1" parent="VqxVqscjtOG9NsngPvRN-172">
          <mxGeometry width="195" height="170" as="geometry" />
        </mxCell>
        <mxCell id="VqxVqscjtOG9NsngPvRN-174" value="Button 1" style="strokeWidth=1;shadow=0;dashed=0;align=center;html=1;shape=mxgraph.mockup.buttons.button;strokeColor=#666666;mainText=;buttonStyle=round;fontSize=17;fontStyle=0;fillColor=none;whiteSpace=wrap;rounded=0;labelBackgroundColor=none;" vertex="1" parent="VqxVqscjtOG9NsngPvRN-172">
          <mxGeometry x="15" y="130" width="80" height="30" as="geometry" />
        </mxCell>
        <mxCell id="VqxVqscjtOG9NsngPvRN-175" value="Button 2" style="strokeWidth=1;shadow=0;dashed=0;align=center;html=1;shape=mxgraph.mockup.buttons.button;strokeColor=#666666;mainText=;buttonStyle=round;fontSize=17;fontStyle=0;fillColor=none;whiteSpace=wrap;rounded=0;labelBackgroundColor=none;" vertex="1" parent="VqxVqscjtOG9NsngPvRN-172">
          <mxGeometry x="105" y="130" width="80" height="30" as="geometry" />
        </mxCell>
        <mxCell id="VqxVqscjtOG9NsngPvRN-176" value="" style="group" vertex="1" connectable="0" parent="VqxVqscjtOG9NsngPvRN-171">
          <mxGeometry x="215" width="195" height="170" as="geometry" />
        </mxCell>
        <mxCell id="VqxVqscjtOG9NsngPvRN-177" value="" style="rounded=0;whiteSpace=wrap;html=1;" vertex="1" parent="VqxVqscjtOG9NsngPvRN-176">
          <mxGeometry width="195" height="170" as="geometry" />
        </mxCell>
        <mxCell id="VqxVqscjtOG9NsngPvRN-178" value="Button 1" style="strokeWidth=1;shadow=0;dashed=0;align=center;html=1;shape=mxgraph.mockup.buttons.button;strokeColor=#666666;mainText=;buttonStyle=round;fontSize=17;fontStyle=0;fillColor=none;whiteSpace=wrap;rounded=0;labelBackgroundColor=none;" vertex="1" parent="VqxVqscjtOG9NsngPvRN-176">
          <mxGeometry x="15" y="130" width="80" height="30" as="geometry" />
        </mxCell>
        <mxCell id="VqxVqscjtOG9NsngPvRN-179" value="Button 2" style="strokeWidth=1;shadow=0;dashed=0;align=center;html=1;shape=mxgraph.mockup.buttons.button;strokeColor=#666666;mainText=;buttonStyle=round;fontSize=17;fontStyle=0;fillColor=none;whiteSpace=wrap;rounded=0;labelBackgroundColor=none;" vertex="1" parent="VqxVqscjtOG9NsngPvRN-176">
          <mxGeometry x="105" y="130" width="80" height="30" as="geometry" />
        </mxCell>
        <mxCell id="VqxVqscjtOG9NsngPvRN-180" value="" style="group" vertex="1" connectable="0" parent="VqxVqscjtOG9NsngPvRN-171">
          <mxGeometry x="435" width="195" height="170" as="geometry" />
        </mxCell>
        <mxCell id="VqxVqscjtOG9NsngPvRN-181" value="" style="rounded=0;whiteSpace=wrap;html=1;" vertex="1" parent="VqxVqscjtOG9NsngPvRN-180">
          <mxGeometry width="195" height="170" as="geometry" />
        </mxCell>
        <mxCell id="VqxVqscjtOG9NsngPvRN-182" value="Button 1" style="strokeWidth=1;shadow=0;dashed=0;align=center;html=1;shape=mxgraph.mockup.buttons.button;strokeColor=#666666;mainText=;buttonStyle=round;fontSize=17;fontStyle=0;fillColor=none;whiteSpace=wrap;rounded=0;labelBackgroundColor=none;" vertex="1" parent="VqxVqscjtOG9NsngPvRN-180">
          <mxGeometry x="15" y="130" width="80" height="30" as="geometry" />
        </mxCell>
        <mxCell id="VqxVqscjtOG9NsngPvRN-183" value="Button 2" style="strokeWidth=1;shadow=0;dashed=0;align=center;html=1;shape=mxgraph.mockup.buttons.button;strokeColor=#666666;mainText=;buttonStyle=round;fontSize=17;fontStyle=0;fillColor=none;whiteSpace=wrap;rounded=0;labelBackgroundColor=none;" vertex="1" parent="VqxVqscjtOG9NsngPvRN-180">
          <mxGeometry x="105" y="130" width="80" height="30" as="geometry" />
        </mxCell>
        <mxCell id="VqxVqscjtOG9NsngPvRN-184" value="" style="group" vertex="1" connectable="0" parent="VqxVqscjtOG9NsngPvRN-171">
          <mxGeometry x="665" width="195" height="170" as="geometry" />
        </mxCell>
        <mxCell id="VqxVqscjtOG9NsngPvRN-185" value="" style="rounded=0;whiteSpace=wrap;html=1;" vertex="1" parent="VqxVqscjtOG9NsngPvRN-184">
          <mxGeometry width="195" height="170" as="geometry" />
        </mxCell>
        <mxCell id="VqxVqscjtOG9NsngPvRN-186" value="Button 1" style="strokeWidth=1;shadow=0;dashed=0;align=center;html=1;shape=mxgraph.mockup.buttons.button;strokeColor=#666666;mainText=;buttonStyle=round;fontSize=17;fontStyle=0;fillColor=none;whiteSpace=wrap;rounded=0;labelBackgroundColor=none;" vertex="1" parent="VqxVqscjtOG9NsngPvRN-184">
          <mxGeometry x="15" y="130" width="80" height="30" as="geometry" />
        </mxCell>
        <mxCell id="VqxVqscjtOG9NsngPvRN-187" value="Button 2" style="strokeWidth=1;shadow=0;dashed=0;align=center;html=1;shape=mxgraph.mockup.buttons.button;strokeColor=#666666;mainText=;buttonStyle=round;fontSize=17;fontStyle=0;fillColor=none;whiteSpace=wrap;rounded=0;labelBackgroundColor=none;" vertex="1" parent="VqxVqscjtOG9NsngPvRN-184">
          <mxGeometry x="105" y="130" width="80" height="30" as="geometry" />
        </mxCell>
        <mxCell id="VqxVqscjtOG9NsngPvRN-188" value="" style="group" vertex="1" connectable="0" parent="VqxVqscjtOG9NsngPvRN-145">
          <mxGeometry x="50" y="1090" width="860" height="170" as="geometry" />
        </mxCell>
        <mxCell id="VqxVqscjtOG9NsngPvRN-189" value="" style="group" vertex="1" connectable="0" parent="VqxVqscjtOG9NsngPvRN-188">
          <mxGeometry width="195" height="170" as="geometry" />
        </mxCell>
        <mxCell id="VqxVqscjtOG9NsngPvRN-190" value="" style="rounded=0;whiteSpace=wrap;html=1;" vertex="1" parent="VqxVqscjtOG9NsngPvRN-189">
          <mxGeometry width="195" height="170" as="geometry" />
        </mxCell>
        <mxCell id="VqxVqscjtOG9NsngPvRN-191" value="Button 1" style="strokeWidth=1;shadow=0;dashed=0;align=center;html=1;shape=mxgraph.mockup.buttons.button;strokeColor=#666666;mainText=;buttonStyle=round;fontSize=17;fontStyle=0;fillColor=none;whiteSpace=wrap;rounded=0;labelBackgroundColor=none;" vertex="1" parent="VqxVqscjtOG9NsngPvRN-189">
          <mxGeometry x="15" y="130" width="80" height="30" as="geometry" />
        </mxCell>
        <mxCell id="VqxVqscjtOG9NsngPvRN-192" value="Button 2" style="strokeWidth=1;shadow=0;dashed=0;align=center;html=1;shape=mxgraph.mockup.buttons.button;strokeColor=#666666;mainText=;buttonStyle=round;fontSize=17;fontStyle=0;fillColor=none;whiteSpace=wrap;rounded=0;labelBackgroundColor=none;" vertex="1" parent="VqxVqscjtOG9NsngPvRN-189">
          <mxGeometry x="105" y="130" width="80" height="30" as="geometry" />
        </mxCell>
        <mxCell id="VqxVqscjtOG9NsngPvRN-193" value="" style="group" vertex="1" connectable="0" parent="VqxVqscjtOG9NsngPvRN-188">
          <mxGeometry x="215" width="195" height="170" as="geometry" />
        </mxCell>
        <mxCell id="VqxVqscjtOG9NsngPvRN-194" value="" style="rounded=0;whiteSpace=wrap;html=1;" vertex="1" parent="VqxVqscjtOG9NsngPvRN-193">
          <mxGeometry width="195" height="170" as="geometry" />
        </mxCell>
        <mxCell id="VqxVqscjtOG9NsngPvRN-195" value="Button 1" style="strokeWidth=1;shadow=0;dashed=0;align=center;html=1;shape=mxgraph.mockup.buttons.button;strokeColor=#666666;mainText=;buttonStyle=round;fontSize=17;fontStyle=0;fillColor=none;whiteSpace=wrap;rounded=0;labelBackgroundColor=none;" vertex="1" parent="VqxVqscjtOG9NsngPvRN-193">
          <mxGeometry x="15" y="130" width="80" height="30" as="geometry" />
        </mxCell>
        <mxCell id="VqxVqscjtOG9NsngPvRN-196" value="Button 2" style="strokeWidth=1;shadow=0;dashed=0;align=center;html=1;shape=mxgraph.mockup.buttons.button;strokeColor=#666666;mainText=;buttonStyle=round;fontSize=17;fontStyle=0;fillColor=none;whiteSpace=wrap;rounded=0;labelBackgroundColor=none;" vertex="1" parent="VqxVqscjtOG9NsngPvRN-193">
          <mxGeometry x="105" y="130" width="80" height="30" as="geometry" />
        </mxCell>
        <mxCell id="VqxVqscjtOG9NsngPvRN-197" value="" style="group" vertex="1" connectable="0" parent="VqxVqscjtOG9NsngPvRN-188">
          <mxGeometry x="435" width="195" height="170" as="geometry" />
        </mxCell>
        <mxCell id="VqxVqscjtOG9NsngPvRN-198" value="" style="rounded=0;whiteSpace=wrap;html=1;" vertex="1" parent="VqxVqscjtOG9NsngPvRN-197">
          <mxGeometry width="195" height="170" as="geometry" />
        </mxCell>
        <mxCell id="VqxVqscjtOG9NsngPvRN-199" value="Button 1" style="strokeWidth=1;shadow=0;dashed=0;align=center;html=1;shape=mxgraph.mockup.buttons.button;strokeColor=#666666;mainText=;buttonStyle=round;fontSize=17;fontStyle=0;fillColor=none;whiteSpace=wrap;rounded=0;labelBackgroundColor=none;" vertex="1" parent="VqxVqscjtOG9NsngPvRN-197">
          <mxGeometry x="15" y="130" width="80" height="30" as="geometry" />
        </mxCell>
        <mxCell id="VqxVqscjtOG9NsngPvRN-200" value="Button 2" style="strokeWidth=1;shadow=0;dashed=0;align=center;html=1;shape=mxgraph.mockup.buttons.button;strokeColor=#666666;mainText=;buttonStyle=round;fontSize=17;fontStyle=0;fillColor=none;whiteSpace=wrap;rounded=0;labelBackgroundColor=none;" vertex="1" parent="VqxVqscjtOG9NsngPvRN-197">
          <mxGeometry x="105" y="130" width="80" height="30" as="geometry" />
        </mxCell>
        <mxCell id="VqxVqscjtOG9NsngPvRN-201" value="" style="group" vertex="1" connectable="0" parent="VqxVqscjtOG9NsngPvRN-188">
          <mxGeometry x="665" width="195" height="170" as="geometry" />
        </mxCell>
        <mxCell id="VqxVqscjtOG9NsngPvRN-202" value="" style="rounded=0;whiteSpace=wrap;html=1;" vertex="1" parent="VqxVqscjtOG9NsngPvRN-201">
          <mxGeometry width="195" height="170" as="geometry" />
        </mxCell>
        <mxCell id="VqxVqscjtOG9NsngPvRN-203" value="Button 1" style="strokeWidth=1;shadow=0;dashed=0;align=center;html=1;shape=mxgraph.mockup.buttons.button;strokeColor=#666666;mainText=;buttonStyle=round;fontSize=17;fontStyle=0;fillColor=none;whiteSpace=wrap;rounded=0;labelBackgroundColor=none;" vertex="1" parent="VqxVqscjtOG9NsngPvRN-201">
          <mxGeometry x="15" y="130" width="80" height="30" as="geometry" />
        </mxCell>
        <mxCell id="VqxVqscjtOG9NsngPvRN-204" value="Button 2" style="strokeWidth=1;shadow=0;dashed=0;align=center;html=1;shape=mxgraph.mockup.buttons.button;strokeColor=#666666;mainText=;buttonStyle=round;fontSize=17;fontStyle=0;fillColor=none;whiteSpace=wrap;rounded=0;labelBackgroundColor=none;" vertex="1" parent="VqxVqscjtOG9NsngPvRN-201">
          <mxGeometry x="105" y="130" width="80" height="30" as="geometry" />
        </mxCell>
        <mxCell id="VqxVqscjtOG9NsngPvRN-205" value="" style="group" vertex="1" connectable="0" parent="VqxVqscjtOG9NsngPvRN-145">
          <mxGeometry x="50" y="1280" width="860" height="170" as="geometry" />
        </mxCell>
        <mxCell id="VqxVqscjtOG9NsngPvRN-206" value="" style="group" vertex="1" connectable="0" parent="VqxVqscjtOG9NsngPvRN-205">
          <mxGeometry width="195" height="170" as="geometry" />
        </mxCell>
        <mxCell id="VqxVqscjtOG9NsngPvRN-207" value="" style="rounded=0;whiteSpace=wrap;html=1;" vertex="1" parent="VqxVqscjtOG9NsngPvRN-206">
          <mxGeometry width="195" height="170" as="geometry" />
        </mxCell>
        <mxCell id="VqxVqscjtOG9NsngPvRN-208" value="Button 1" style="strokeWidth=1;shadow=0;dashed=0;align=center;html=1;shape=mxgraph.mockup.buttons.button;strokeColor=#666666;mainText=;buttonStyle=round;fontSize=17;fontStyle=0;fillColor=none;whiteSpace=wrap;rounded=0;labelBackgroundColor=none;" vertex="1" parent="VqxVqscjtOG9NsngPvRN-206">
          <mxGeometry x="15" y="130" width="80" height="30" as="geometry" />
        </mxCell>
        <mxCell id="VqxVqscjtOG9NsngPvRN-209" value="Button 2" style="strokeWidth=1;shadow=0;dashed=0;align=center;html=1;shape=mxgraph.mockup.buttons.button;strokeColor=#666666;mainText=;buttonStyle=round;fontSize=17;fontStyle=0;fillColor=none;whiteSpace=wrap;rounded=0;labelBackgroundColor=none;" vertex="1" parent="VqxVqscjtOG9NsngPvRN-206">
          <mxGeometry x="105" y="130" width="80" height="30" as="geometry" />
        </mxCell>
        <mxCell id="VqxVqscjtOG9NsngPvRN-210" value="" style="group" vertex="1" connectable="0" parent="VqxVqscjtOG9NsngPvRN-205">
          <mxGeometry x="215" width="195" height="170" as="geometry" />
        </mxCell>
        <mxCell id="VqxVqscjtOG9NsngPvRN-211" value="" style="rounded=0;whiteSpace=wrap;html=1;" vertex="1" parent="VqxVqscjtOG9NsngPvRN-210">
          <mxGeometry width="195" height="170" as="geometry" />
        </mxCell>
        <mxCell id="VqxVqscjtOG9NsngPvRN-212" value="Button 1" style="strokeWidth=1;shadow=0;dashed=0;align=center;html=1;shape=mxgraph.mockup.buttons.button;strokeColor=#666666;mainText=;buttonStyle=round;fontSize=17;fontStyle=0;fillColor=none;whiteSpace=wrap;rounded=0;labelBackgroundColor=none;" vertex="1" parent="VqxVqscjtOG9NsngPvRN-210">
          <mxGeometry x="15" y="130" width="80" height="30" as="geometry" />
        </mxCell>
        <mxCell id="VqxVqscjtOG9NsngPvRN-213" value="Button 2" style="strokeWidth=1;shadow=0;dashed=0;align=center;html=1;shape=mxgraph.mockup.buttons.button;strokeColor=#666666;mainText=;buttonStyle=round;fontSize=17;fontStyle=0;fillColor=none;whiteSpace=wrap;rounded=0;labelBackgroundColor=none;" vertex="1" parent="VqxVqscjtOG9NsngPvRN-210">
          <mxGeometry x="105" y="130" width="80" height="30" as="geometry" />
        </mxCell>
        <mxCell id="VqxVqscjtOG9NsngPvRN-214" value="" style="group" vertex="1" connectable="0" parent="VqxVqscjtOG9NsngPvRN-205">
          <mxGeometry x="435" width="195" height="170" as="geometry" />
        </mxCell>
        <mxCell id="VqxVqscjtOG9NsngPvRN-215" value="" style="rounded=0;whiteSpace=wrap;html=1;" vertex="1" parent="VqxVqscjtOG9NsngPvRN-214">
          <mxGeometry width="195" height="170" as="geometry" />
        </mxCell>
        <mxCell id="VqxVqscjtOG9NsngPvRN-216" value="Button 1" style="strokeWidth=1;shadow=0;dashed=0;align=center;html=1;shape=mxgraph.mockup.buttons.button;strokeColor=#666666;mainText=;buttonStyle=round;fontSize=17;fontStyle=0;fillColor=none;whiteSpace=wrap;rounded=0;labelBackgroundColor=none;" vertex="1" parent="VqxVqscjtOG9NsngPvRN-214">
          <mxGeometry x="15" y="130" width="80" height="30" as="geometry" />
        </mxCell>
        <mxCell id="VqxVqscjtOG9NsngPvRN-217" value="Button 2" style="strokeWidth=1;shadow=0;dashed=0;align=center;html=1;shape=mxgraph.mockup.buttons.button;strokeColor=#666666;mainText=;buttonStyle=round;fontSize=17;fontStyle=0;fillColor=none;whiteSpace=wrap;rounded=0;labelBackgroundColor=none;" vertex="1" parent="VqxVqscjtOG9NsngPvRN-214">
          <mxGeometry x="105" y="130" width="80" height="30" as="geometry" />
        </mxCell>
        <mxCell id="VqxVqscjtOG9NsngPvRN-218" value="" style="group" vertex="1" connectable="0" parent="VqxVqscjtOG9NsngPvRN-205">
          <mxGeometry x="665" width="195" height="170" as="geometry" />
        </mxCell>
        <mxCell id="VqxVqscjtOG9NsngPvRN-219" value="" style="rounded=0;whiteSpace=wrap;html=1;" vertex="1" parent="VqxVqscjtOG9NsngPvRN-218">
          <mxGeometry width="195" height="170" as="geometry" />
        </mxCell>
        <mxCell id="VqxVqscjtOG9NsngPvRN-220" value="Button 1" style="strokeWidth=1;shadow=0;dashed=0;align=center;html=1;shape=mxgraph.mockup.buttons.button;strokeColor=#666666;mainText=;buttonStyle=round;fontSize=17;fontStyle=0;fillColor=none;whiteSpace=wrap;rounded=0;labelBackgroundColor=none;" vertex="1" parent="VqxVqscjtOG9NsngPvRN-218">
          <mxGeometry x="15" y="130" width="80" height="30" as="geometry" />
        </mxCell>
        <mxCell id="VqxVqscjtOG9NsngPvRN-221" value="Button 2" style="strokeWidth=1;shadow=0;dashed=0;align=center;html=1;shape=mxgraph.mockup.buttons.button;strokeColor=#666666;mainText=;buttonStyle=round;fontSize=17;fontStyle=0;fillColor=none;whiteSpace=wrap;rounded=0;labelBackgroundColor=none;" vertex="1" parent="VqxVqscjtOG9NsngPvRN-218">
          <mxGeometry x="105" y="130" width="80" height="30" as="geometry" />
        </mxCell>
        <mxCell id="VqxVqscjtOG9NsngPvRN-222" value="&lt;font style=&quot;font-size: 23px;&quot;&gt;Schedule&lt;/font&gt;" style="rounded=0;whiteSpace=wrap;html=1;" vertex="1" parent="VqxVqscjtOG9NsngPvRN-145">
          <mxGeometry x="45" y="1540" width="955" height="640" as="geometry" />
        </mxCell>
        <mxCell id="VqxVqscjtOG9NsngPvRN-223" value="&lt;font style=&quot;font-size: 20px;&quot;&gt;Offense/Defesne&lt;/font&gt;" style="text;html=1;align=center;verticalAlign=middle;whiteSpace=wrap;rounded=0;" vertex="1" parent="VqxVqscjtOG9NsngPvRN-145">
          <mxGeometry x="85" y="1500" width="60" height="30" as="geometry" />
        </mxCell>
      </root>
    </mxGraphModel>
  </diagram>
</mxfile>
